# Blender 4.3.2
# www.blender.org
mtllib monitor.mtl
o Cube
v 3.608523 5.339149 -0.228821
v 3.608523 0.096111 -0.228821
v 3.608523 5.339149 0.228821
v 3.608523 0.096111 0.228821
v -3.608523 5.339149 -0.228821
v -3.608523 0.096111 -0.228821
v -3.608523 5.339149 0.228821
v -3.608523 0.096111 0.228821
v 0.522701 0.096111 -0.228821
v 0.434494 5.339149 0.228821
v 0.434494 0.096111 0.228821
v 0.522701 5.339149 -0.228821
v -0.270797 0.096111 -0.228821
v -0.359003 5.339149 0.228821
v -0.359003 0.096111 0.228821
v -0.270797 5.339149 -0.228821
v 3.608523 3.183957 -0.228821
v -3.608523 3.183957 0.228821
v 3.608523 3.183957 0.228821
v -3.608523 3.183957 -0.228821
v 0.522701 3.183957 -0.228821
v 0.434494 3.183957 0.228821
v -0.270797 3.183957 -0.228821
v -0.359003 3.183957 0.228821
v 3.608523 2.434052 -0.228821
v 3.608523 2.434052 0.228821
v -3.608523 2.434052 -0.228821
v 0.522701 2.434052 -0.228821
v 0.434494 2.434052 0.228821
v -0.270797 2.434052 -0.228821
v -0.359003 2.434052 0.228821
v -3.608523 2.434052 0.228821
v -0.270797 3.183957 -0.333395
v 0.522701 3.183957 -0.333395
v 0.522701 2.434052 -0.333395
v -0.270797 2.434052 -0.333395
v -0.270797 3.183957 -0.735757
v 0.522701 3.183957 -0.735757
v 0.522701 2.434052 -0.735757
v -0.270797 2.434052 -0.735757
v -0.270797 -0.744776 -0.333395
v 0.522701 -0.744776 -0.333395
v -0.270797 -0.744776 -0.735757
v 0.522701 -0.744776 -0.735757
v -3.608523 2.817670 0.228821
v 3.608523 2.817670 -0.228821
v 3.608523 2.817670 0.228821
v -3.608523 2.817670 -0.228821
v 0.522701 2.817670 -0.228821
v 0.434494 2.817670 0.228821
v -0.270797 2.817670 -0.228821
v -0.359003 2.817670 0.228821
v 0.522701 2.817670 -0.333395
v -0.270797 2.817670 -0.333395
v 0.522701 2.817670 -0.735757
v -0.270797 2.817670 -0.735757
v 3.608523 0.287651 -0.228821
v 3.608523 0.287651 0.228821
v -3.608523 0.287651 -0.228821
v 0.522701 0.287651 -0.228821
v 0.434494 0.287651 0.228821
v -0.270797 0.287651 -0.228821
v -0.359003 0.287651 0.228821
v -3.608523 0.287651 0.228821
v 3.608523 0.287651 0.307506
v 3.608523 0.096111 0.307506
v 0.434494 0.096111 0.307506
v -0.359003 0.096111 0.307506
v 0.434494 0.287651 0.307506
v -3.608523 0.096111 0.307506
v -0.359003 0.287651 0.307506
v -3.608523 0.287651 0.307506
v -3.426466 0.096111 -0.228821
v -3.431277 5.339149 0.228821
v -3.431277 0.096111 0.228821
v -3.426466 5.339149 -0.228821
v -3.426466 3.183957 -0.228821
v -3.431277 3.183957 0.228821
v -3.431277 2.434052 0.228821
v -3.426466 2.434052 -0.228821
v -3.431277 2.817670 0.228821
v -3.426466 2.817670 -0.228821
v -3.426466 0.287651 -0.228821
v -3.431277 0.287651 0.228821
v -3.431277 0.096111 0.307506
v -3.431277 0.287651 0.307506
v 3.441985 0.096111 0.228821
v 3.446613 5.339149 -0.228821
v 3.446613 0.096111 -0.228821
v 3.441985 5.339149 0.228821
v 3.441985 3.183957 0.228821
v 3.446613 3.183957 -0.228821
v 3.446613 2.434052 -0.228821
v 3.441985 2.434052 0.228821
v 3.446613 2.817670 -0.228821
v 3.441985 2.817670 0.228821
v 3.441985 0.287651 0.228821
v 3.446613 0.287651 -0.228821
v 3.441985 0.096111 0.307506
v 3.441985 0.287651 0.307506
v -3.608523 5.175214 0.228821
v 3.608523 5.175214 -0.228821
v 3.608523 5.175214 0.228821
v -3.608523 5.175214 -0.228821
v 0.522701 5.175214 -0.228821
v 0.434494 5.175214 0.228821
v -0.270797 5.175214 -0.228821
v -0.359003 5.175214 0.228821
v -3.426466 5.175214 -0.228821
v -3.431277 5.175214 0.228821
v 3.441985 5.175214 0.228821
v 3.446613 5.175214 -0.228821
v -3.608523 5.175214 0.311815
v -3.608523 5.339149 0.311815
v -3.431277 5.339149 0.311815
v 3.441985 5.339149 0.311815
v 0.434494 5.339149 0.311815
v -0.359003 5.339149 0.311815
v -3.608523 2.817670 0.311815
v -3.608523 3.183957 0.311815
v 3.608523 5.175214 0.311815
v 3.608523 3.183957 0.311815
v -3.431277 3.183957 0.311815
v 3.608523 2.817670 0.311815
v 3.608523 2.434052 0.311815
v -3.608523 0.287651 0.311815
v -3.608523 2.434052 0.311815
v -3.431277 2.434052 0.311815
v -3.431277 2.817670 0.311815
v 3.608523 0.287651 0.311815
v -3.431277 0.287651 0.311815
v -3.431277 5.175214 0.311815
v 3.608523 5.339149 0.311815
v 3.441985 3.183957 0.311815
v 3.441985 2.434052 0.311815
v 3.441985 2.817670 0.311815
v 3.441985 0.287651 0.311815
v 3.441985 5.175214 0.311815
v 0.434494 5.175214 0.311815
v -0.359003 5.175214 0.311815
vn -0.0000 1.0000 -0.0000
vn -0.0000 -1.0000 -0.0000
vn -1.0000 -0.0000 -0.0000
vn 1.0000 -0.0000 -0.0000
vn -0.0000 -0.0000 -1.0000
vn -0.0000 -0.0000 1.0000
vt 0.868693 0.500000
vt 0.875000 0.500000
vt 0.875000 0.750000
vt 0.868693 0.750000
vt 0.617183 0.884381
vt 0.617183 0.856894
vt 0.617183 0.000000
vt 0.625000 0.000000
vt 0.625000 0.250000
vt 0.617183 0.250000
vt 0.369391 0.500000
vt 0.375000 0.500000
vt 0.375000 0.750000
vt 0.369391 0.750000
vt 0.617183 0.500000
vt 0.625000 0.500000
vt 0.625000 0.750000
vt 0.617183 0.750000
vt 0.617183 0.494391
vt 0.625000 0.494391
vt 0.617183 0.365620
vt 0.625000 0.365620
vt 0.625000 0.393106
vt 0.617183 0.393106
vt 0.240620 0.500000
vt 0.268106 0.500000
vt 0.268106 0.750000
vt 0.240620 0.750000
vt 0.486478 0.000000
vt 0.384133 0.000000
vt 0.630609 0.500000
vt 0.731894 0.500000
vt 0.731894 0.750000
vt 0.630609 0.750000
vt 0.131307 0.500000
vt 0.131307 0.750000
vt 0.617183 0.256307
vt 0.625000 0.256307
vt 0.759380 0.500000
vt 0.759380 0.750000
vt 0.504770 0.856894
vt 0.522236 0.856894
vt 0.522236 0.884381
vt 0.504770 0.884380
vt 0.504770 0.256307
vt 0.522236 0.256307
vt 0.522236 0.365620
vt 0.504770 0.365620
vt 0.504770 0.755609
vt 0.522236 0.755609
vt 0.504770 0.365620
vt 0.504770 0.494391
vt 0.522236 0.494391
vt 0.522236 0.500000
vt 0.504770 0.500000
vt 0.522236 0.750000
vt 0.504770 0.750000
vt 0.504770 0.000000
vt 0.522236 0.000000
vt 0.522236 0.250000
vt 0.504770 0.250000
vt 0.617183 0.993693
vt 0.486478 0.250000
vt 0.384133 0.250000
vt 0.384133 0.500000
vt 0.486478 0.500000
vt 0.486478 0.750000
vt 0.384133 0.750000
vt 0.384133 0.494391
vt 0.486478 0.494391
vt 0.384133 0.365620
vt 0.486478 0.365620
vt 0.486478 0.393106
vt 0.384133 0.393106
vt 0.384133 0.755609
vt 0.486478 0.755609
vt 0.486478 0.856894
vt 0.384133 0.856894
vt 0.384133 0.256307
vt 0.486478 0.256307
vt 0.486478 0.884380
vt 0.384133 0.884381
vt 0.504770 0.393106
vt 0.504770 0.393106
vt 0.522236 0.393106
vt 0.384133 0.993693
vt 0.384133 1.000000
vt 0.375000 0.256307
vt 0.375000 0.365620
vt 0.375000 0.393106
vt 0.375000 0.494391
vt 0.375000 0.000000
vt 0.375000 0.250000
vt 0.375000 0.856894
vt 0.375000 0.884380
vt 0.375000 0.755609
vt 0.375000 0.993693
vt 0.375000 1.000000
vt 0.125000 0.750000
vt 0.504770 0.993694
vt 0.486478 0.993693
vt 0.522236 0.993693
vt 0.125000 0.500000
vt 0.617183 0.755609
vt 0.625000 0.993693
vt 0.625000 1.000000
vt 0.617183 1.000000
vt 0.625000 0.755609
vt 0.625000 0.856894
vt 0.625000 0.884380
vt 0.522236 1.000000
vt 0.504770 1.000000
vt 0.486478 1.000000
s 0
usemtl Material
f 76/1/1 5/2/1 7/3/1 74/4/1
f 108/5/2 106/6/2 139/6/2 140/5/2
f 101/7/3 7/8/3 5/9/3 104/10/3
f 89/11/2 2/12/2 4/13/2 87/14/2
f 102/15/4 1/16/4 3/17/4 103/18/4
f 112/19/5 88/20/5 1/16/5 102/15/5
f 107/21/5 16/22/5 12/23/5 105/24/5
f 13/25/2 9/26/2 11/27/2 15/28/2
f 32/29/3 64/30/3 126/30/3 127/29/3
f 88/31/1 12/32/1 10/33/1 90/34/1
f 73/35/2 13/25/2 15/28/2 75/36/2
f 109/37/5 76/38/5 16/22/5 107/21/5
f 103/18/4 3/17/4 133/17/4 121/18/4
f 12/32/1 16/39/1 14/40/1 10/33/1
f 50/41/6 22/42/6 24/43/6 52/44/6
f 82/45/5 77/46/5 23/47/5 51/48/5
f 96/49/6 91/50/6 22/42/6 50/41/6
f 51/48/3 23/47/3 33/47/3 54/51/3
f 95/52/5 92/53/5 17/54/5 46/55/5
f 46/55/4 17/54/4 19/56/4 47/57/4
f 45/58/3 18/59/3 20/60/3 48/61/3
f 3/17/1 90/34/1 116/34/1 133/17/1
f 110/62/2 108/5/2 140/5/2 132/62/2
f 64/30/3 32/29/3 27/63/3 59/64/3
f 57/65/4 25/66/4 26/67/4 58/68/4
f 98/69/5 93/70/5 25/66/5 57/65/5
f 62/71/5 30/72/5 28/73/5 60/74/5
f 97/75/6 94/76/6 29/77/6 61/78/6
f 83/79/5 80/80/5 30/72/5 62/71/5
f 61/78/6 29/77/6 31/81/6 63/82/6
f 54/51/3 33/47/3 37/47/3 56/48/3
f 49/83/4 28/73/4 35/73/4 53/84/4
f 28/73/2 30/72/2 36/72/2 35/73/2
f 23/47/1 21/85/1 34/85/1 33/47/1
f 56/48/5 37/47/5 38/85/5 55/83/5
f 33/47/1 34/85/1 38/85/1 37/47/1
f 39/73/4 35/73/4 42/73/4 44/73/4
f 53/84/4 35/73/4 39/73/4 55/83/4
f 42/73/2 41/72/2 43/72/2 44/73/2
f 36/72/3 40/72/3 43/72/3 41/72/3
f 40/72/5 39/73/5 44/73/5 43/72/5
f 35/73/6 36/72/6 41/72/6 42/73/6
f 34/85/4 53/84/4 55/83/4 38/85/4
f 40/72/5 56/48/5 55/83/5 39/73/5
f 21/85/4 49/83/4 53/84/4 34/85/4
f 36/72/3 54/51/3 56/48/3 40/72/3
f 101/7/3 18/59/3 120/59/3 113/7/3
f 32/29/3 45/58/3 48/61/3 27/63/3
f 25/66/4 46/55/4 47/57/4 26/67/4
f 93/70/5 95/52/5 46/55/5 25/66/5
f 30/72/3 51/48/3 54/51/3 36/72/3
f 94/76/6 96/49/6 50/41/6 29/77/6
f 80/80/5 82/45/5 51/48/5 30/72/5
f 29/77/6 50/41/6 52/44/6 31/81/6
f 84/86/1 64/87/1 72/87/1 86/86/1
f 73/88/5 83/79/5 62/71/5 13/89/5
f 4/13/4 58/68/4 65/68/4 66/13/4
f 13/89/5 62/71/5 60/74/5 9/90/5
f 89/91/5 98/69/5 57/65/5 2/12/5
f 2/12/4 57/65/4 58/68/4 4/13/4
f 8/92/3 64/30/3 59/64/3 6/93/3
f 61/78/1 63/82/1 71/82/1 69/78/1
f 67/94/6 69/78/6 71/82/6 68/95/6
f 99/96/6 100/75/6 69/78/6 67/94/6
f 85/97/6 86/86/6 72/87/6 70/98/6
f 75/36/2 15/28/2 68/28/2 85/36/2
f 64/30/3 8/92/3 70/92/3 72/30/3
f 15/28/2 11/27/2 67/27/2 68/28/2
f 97/75/1 61/78/1 69/78/1 100/75/1
f 87/14/2 4/13/2 66/13/2 99/14/2
f 8/99/2 75/36/2 85/36/2 70/99/2
f 68/95/6 71/82/6 86/86/6 85/97/6
f 6/93/5 59/64/5 83/79/5 73/88/5
f 63/82/1 84/86/1 86/86/1 71/82/1
f 27/63/5 48/61/5 82/45/5 80/80/5
f 31/81/6 52/44/6 81/100/6 79/101/6
f 59/64/5 27/63/5 80/80/5 83/79/5
f 63/82/6 31/81/6 79/101/6 84/86/6
f 52/44/6 24/43/6 78/102/6 81/100/6
f 48/61/5 20/60/5 77/46/5 82/45/5
f 104/10/5 5/9/5 76/38/5 109/37/5
f 6/103/2 73/35/2 75/36/2 8/99/2
f 10/33/1 14/40/1 118/40/1 117/33/1
f 16/39/1 76/1/1 74/4/1 14/40/1
f 11/27/2 87/14/2 99/14/2 67/27/2
f 58/68/1 97/75/1 100/75/1 65/68/1
f 66/13/6 65/68/6 100/75/6 99/96/6
f 9/90/5 60/74/5 98/69/5 89/91/5
f 14/40/1 74/4/1 115/4/1 118/40/1
f 28/73/5 49/83/5 95/52/5 93/70/5
f 74/4/1 7/3/1 114/3/1 115/4/1
f 60/74/5 28/73/5 93/70/5 98/69/5
f 49/83/5 21/85/5 92/53/5 95/52/5
f 47/57/4 19/56/4 122/56/4 124/57/4
f 1/16/1 88/31/1 90/34/1 3/17/1
f 111/104/3 91/50/3 134/50/3 138/104/3
f 105/24/5 12/23/5 88/20/5 112/19/5
f 9/26/2 89/11/2 87/14/2 11/27/2
f 21/85/5 105/24/5 112/19/5 92/53/5
f 78/102/4 110/62/4 132/62/4 123/102/4
f 24/43/6 108/5/6 110/62/6 78/102/6
f 20/60/5 104/10/5 109/37/5 77/46/5
f 22/42/6 106/6/6 108/5/6 24/43/6
f 77/46/5 109/37/5 107/21/5 23/47/5
f 91/50/6 111/104/6 106/6/6 22/42/6
f 23/47/5 107/21/5 105/24/5 21/85/5
f 92/53/5 112/19/5 102/15/5 17/54/5
f 17/54/4 102/15/4 103/18/4 19/56/4
f 18/59/3 101/7/3 104/10/3 20/60/3
f 26/67/4 47/57/4 124/57/4 125/67/4
f 132/62/6 115/105/6 114/106/6 113/107/6
f 138/104/6 116/108/6 117/109/6 139/6/6
f 139/6/6 117/109/6 118/110/6 140/5/6
f 129/100/6 123/102/6 120/111/6 119/112/6
f 131/86/6 128/101/6 127/113/6 126/87/6
f 128/101/6 129/100/6 119/112/6 127/113/6
f 140/5/6 118/110/6 115/105/6 132/62/6
f 125/67/6 124/57/6 136/49/6 135/76/6
f 130/68/6 125/67/6 135/76/6 137/75/6
f 124/57/6 122/56/6 134/50/6 136/49/6
f 121/18/6 133/17/6 116/108/6 138/104/6
f 122/56/6 121/18/6 138/104/6 134/50/6
f 123/102/6 132/62/6 113/107/6 120/111/6
f 79/101/4 81/100/4 129/100/4 128/101/4
f 96/49/3 94/76/3 135/76/3 136/49/3
f 106/6/2 111/104/2 138/104/2 139/6/2
f 90/34/1 10/33/1 117/33/1 116/34/1
f 84/86/4 79/101/4 128/101/4 131/86/4
f 94/76/3 97/75/3 137/75/3 135/76/3
f 81/100/4 78/102/4 123/102/4 129/100/4
f 58/68/4 26/67/4 125/67/4 130/68/4
f 18/59/3 45/58/3 119/58/3 120/59/3
f 64/87/2 84/86/2 131/86/2 126/87/2
f 7/8/3 101/7/3 113/7/3 114/8/3
f 19/56/4 103/18/4 121/18/4 122/56/4
f 91/50/3 96/49/3 136/49/3 134/50/3
f 45/58/3 32/29/3 127/29/3 119/58/3
f 97/75/2 58/68/2 130/68/2 137/75/2
o Circle
v -1.242959 -1.195744 -7.133820
v -6.986719 -1.598417 4.663141
v 6.104440 -1.848292 3.724870
l 142 141
l 143 142
l 141 143
o Cube.001
v -0.776112 -0.756978 0.420639
v -0.776112 -0.968039 0.420639
v -0.776112 -0.756978 -0.833257
v -0.776112 -0.968039 -0.833257
v 1.058985 -0.756978 0.420639
v 1.058985 -0.968039 0.420639
v 1.058985 -0.756978 -0.833257
v 1.058985 -0.968039 -0.833257
vn -1.0000 -0.0000 -0.0000
vn -0.0000 -0.0000 -1.0000
vn 1.0000 -0.0000 -0.0000
vn -0.0000 -0.0000 1.0000
vn -0.0000 1.0000 -0.0000
vn -0.0000 -1.0000 -0.0000
vt 0.375000 0.000000
vt 0.625000 0.000000
vt 0.625000 0.250000
vt 0.375000 0.250000
vt 0.625000 0.500000
vt 0.375000 0.500000
vt 0.625000 0.750000
vt 0.375000 0.750000
vt 0.625000 1.000000
vt 0.375000 1.000000
vt 0.125000 0.500000
vt 0.125000 0.750000
vt 0.875000 0.500000
vt 0.875000 0.750000
s 0
f 144/114/7 146/117/7 147/116/7 145/115/7
f 146/117/8 150/119/8 151/118/8 147/116/8
f 150/119/9 148/121/9 149/120/9 151/118/9
f 148/121/10 144/123/10 145/122/10 149/120/10
f 146/124/11 144/125/11 148/121/11 150/119/11
f 151/118/12 149/120/12 145/127/12 147/126/12
